<?xml version="1.0" standalone="no"?>
<!DOCTYPE svg PUBLIC "-//W3C//DTD SVG 20010904//EN"
 "http://www.w3.org/TR/2001/REC-SVG-20010904/DTD/svg10.dtd">
<svg version="1.0" xmlns="http://www.w3.org/2000/svg"
 width="1080.000000pt" height="1080.000000pt" viewBox="0 0 1080.000000 1080.000000"
 preserveAspectRatio="xMidYMid meet">

<g transform="translate(0.000000,1080.000000) scale(0.100000,-0.100000)"
fill="#000000" stroke="none">
<path d="M3260 8561 c-81 -9 -120 -18 -120 -29 0 -4 31 -27 68 -52 99 -66 279
-249 344 -350 105 -160 163 -304 174 -430 l7 -66 -65 -80 c-273 -337 -452
-629 -542 -882 -114 -325 -114 -662 1 -997 114 -332 353 -610 650 -759 104
-52 214 -94 318 -122 144 -38 154 -30 37 29 -255 129 -403 291 -466 512 -30
104 -39 209 -27 315 34 294 222 543 516 685 49 24 111 50 137 57 62 16 79 7
233 -117 66 -54 130 -102 142 -107 41 -19 49 -6 62 104 45 369 183 585 511
797 284 184 617 309 1080 406 187 39 334 83 770 227 250 83 461 153 467 155
24 9 -40 -141 -114 -266 -137 -232 -411 -518 -580 -604 -17 -9 -179 -46 -360
-82 -180 -35 -350 -69 -376 -75 -27 -5 -60 -10 -73 -10 -14 0 -23 -4 -20 -9 3
-4 101 -11 218 -16 117 -4 258 -10 312 -14 l99 -6 -80 -90 c-184 -208 -378
-342 -716 -494 -160 -72 -373 -140 -707 -225 -333 -84 -497 -139 -660 -218
-140 -68 -149 -74 -246 -172 -76 -77 -109 -118 -135 -171 -31 -64 -34 -77 -34
-165 0 -111 17 -155 97 -251 105 -127 262 -212 463 -254 237 -48 265 -50 812
-50 287 0 524 2 527 5 3 3 -6 28 -19 55 -21 44 -24 64 -25 165 0 100 4 125 28
195 33 95 83 171 183 278 79 86 79 97 6 97 -216 1 -457 -118 -650 -319 -78
-82 -147 -201 -147 -255 0 -26 -1 -26 -76 -26 -282 0 -604 121 -750 283 -100
111 -123 218 -68 317 68 121 212 201 579 321 109 36 173 55 381 110 158 41
412 132 552 195 29 13 54 24 57 24 12 0 231 110 305 153 235 138 377 260 548
472 44 55 95 111 114 125 139 102 368 341 512 535 188 252 342 544 378 716 15
71 1 110 -54 150 -167 120 -800 218 -1414 219 -322 0 -611 -27 -914 -86 -155
-31 -346 -77 -491 -120 l-116 -34 -74 31 c-107 44 -328 122 -394 139 -16 4
-64 17 -105 28 -106 29 -316 70 -445 88 -128 17 -515 26 -625 15z m3344 -722
c50 -40 27 -128 -44 -168 -48 -27 -80 -27 -114 0 -21 16 -26 29 -26 63 0 48
19 80 64 107 41 25 87 24 120 -2z"/>
<path d="M7808 7101 c-1 -5 -64 -73 -138 -152 -74 -79 -160 -171 -190 -204
-30 -33 -89 -96 -132 -140 l-78 -81 2 -899 3 -900 273 -3 272 -2 0 1195 c0
657 -2 1195 -4 1195 -2 0 -6 -4 -8 -9z"/>
<path d="M6875 6085 c-60 -30 -183 -87 -272 -126 l-163 -72 0 -584 0 -583 275
0 275 0 0 710 c0 391 -1 710 -2 709 -2 0 -52 -25 -113 -54z"/>
<path d="M4248 4763 c7 -3 16 -2 19 1 4 3 -2 6 -13 5 -11 0 -14 -3 -6 -6z"/>
<path d="M3204 4449 c-107 -18 -195 -75 -237 -153 -19 -36 -22 -60 -25 -200
-4 -178 4 -227 49 -292 100 -146 443 -165 593 -33 66 58 80 97 84 242 l4 127
-173 -2 -174 -3 0 -80 0 -80 38 -3 c44 -4 48 -22 12 -57 -31 -32 -91 -34 -129
-4 -26 20 -26 21 -26 159 0 131 1 140 23 160 29 29 104 23 126 -9 13 -20 22
-21 157 -21 l144 0 0 30 c0 42 -32 101 -72 135 -89 76 -246 109 -394 84z"/>
<path d="M4844 4449 c-107 -18 -184 -67 -232 -148 -26 -44 -27 -52 -30 -213
-4 -194 6 -243 64 -302 120 -124 387 -141 541 -34 60 40 90 98 104 194 16 110
5 271 -22 334 -39 91 -125 149 -249 169 -74 12 -104 12 -176 0z m146 -219 c28
-28 32 -54 28 -185 -3 -109 -5 -118 -27 -136 -23 -19 -65 -25 -96 -13 -32 13
-45 59 -45 168 0 109 9 150 38 172 26 20 79 17 102 -6z"/>
<path d="M3812 4442 c-9 -6 -12 -89 -10 -378 l3 -369 125 0 125 0 3 118 3 118
25 -3 c21 -3 32 -19 75 -113 27 -60 55 -113 62 -117 7 -4 67 -8 135 -8 98 0
124 3 128 15 3 8 -24 69 -60 136 -36 68 -66 126 -66 130 0 4 13 17 29 28 46
33 81 113 81 185 0 115 -56 193 -172 238 -46 18 -80 22 -263 25 -115 2 -216 0
-223 -5z m362 -205 c21 -15 24 -70 6 -92 -8 -10 -30 -15 -66 -15 l-54 0 0 60
0 60 48 0 c27 0 56 -6 66 -13z"/>
<path d="M5394 4435 c-4 -9 17 -174 45 -368 40 -276 55 -355 68 -364 11 -8 51
-13 110 -13 109 0 101 -7 159 140 20 52 40 99 44 103 4 4 26 -43 50 -104 24
-61 50 -118 58 -125 9 -10 41 -14 106 -14 76 0 96 3 109 18 23 25 122 722 105
734 -21 13 -212 10 -231 -4 -13 -10 -21 -45 -32 -143 -23 -192 -23 -193 -51
-111 -33 96 -35 97 -118 94 l-71 -3 -25 -72 c-14 -39 -28 -74 -31 -77 -3 -4
-14 62 -24 146 -12 113 -21 156 -33 166 -10 8 -53 12 -124 12 -88 0 -110 -3
-114 -15z"/>
<path d="M6341 4436 c-8 -9 -11 -48 -9 -112 l3 -99 103 -3 102 -3 0 -253 c0
-204 3 -256 14 -265 9 -8 54 -11 132 -9 l119 3 3 262 2 262 103 3 102 3 3 104
c2 77 -1 107 -10 113 -7 4 -158 8 -334 8 -263 0 -324 -3 -333 -14z"/>
<path d="M7142 4442 c-9 -7 -12 -89 -10 -378 l3 -369 125 0 125 0 5 130 5 130
88 3 87 3 0 -116 c0 -64 5 -125 10 -136 10 -17 22 -19 120 -19 59 0 115 3 124
6 14 5 16 47 16 368 0 268 -3 365 -12 374 -8 8 -49 12 -119 12 -141 0 -139 2
-139 -146 l0 -114 -90 0 -90 0 0 124 c0 104 -3 125 -16 130 -23 9 -217 7 -232
-2z"/>
<path d="M3280 3499 c-83 -9 -166 -40 -222 -83 -83 -63 -124 -181 -99 -283 32
-128 132 -194 350 -228 107 -17 147 -30 155 -51 19 -49 -115 -62 -197 -19 -45
24 -54 25 -190 23 l-142 -3 -3 -36 c-9 -111 119 -228 283 -258 195 -36 406 8
508 107 61 59 81 105 81 192 1 174 -86 245 -356 290 -92 15 -128 26 -143 41
l-20 20 24 20 c31 25 57 24 114 -6 45 -24 53 -25 195 -23 l147 3 3 25 c14 96
-129 231 -273 259 -79 15 -145 18 -215 10z"/>
<path d="M3940 3471 c-6 -13 -10 -171 -10 -446 0 -275 4 -433 10 -446 10 -17
23 -19 160 -19 137 0 150 2 160 19 5 11 10 83 10 160 l0 141 105 0 105 0 0
-141 c0 -77 5 -149 10 -160 10 -17 23 -19 160 -19 137 0 150 2 160 19 14 27
14 865 0 892 -10 17 -23 19 -158 19 -102 0 -152 -4 -160 -12 -8 -8 -12 -57
-12 -155 l0 -143 -105 0 -105 0 0 143 c0 98 -4 147 -12 155 -8 8 -58 12 -160
12 -135 0 -148 -2 -158 -19z"/>
<path d="M5238 3473 c-8 -10 -83 -213 -167 -452 -116 -334 -149 -437 -140
-447 16 -19 278 -20 300 -1 9 6 24 33 33 60 l18 48 145 -3 145 -3 19 -49 c10
-27 24 -53 31 -58 7 -4 74 -8 149 -8 104 0 139 3 148 14 9 10 -23 112 -143
456 -85 244 -161 447 -168 451 -7 5 -90 9 -184 9 -150 0 -173 -2 -186 -17z
m222 -399 c17 -54 33 -107 36 -116 5 -16 -3 -18 -70 -18 -42 0 -76 2 -76 4 0
1 4 16 10 32 5 16 21 69 35 117 15 49 28 87 31 85 2 -2 17 -49 34 -104z"/>
<path d="M6041 3471 c-15 -27 -15 -865 -1 -892 10 -17 23 -19 160 -19 137 0
150 2 160 19 5 11 10 77 10 146 l0 126 27 -3 c25 -3 33 -16 86 -133 32 -71 65
-136 74 -142 24 -19 316 -18 331 0 12 14 6 27 -105 231 l-53 100 43 40 c72 66
92 115 92 222 0 81 -3 97 -30 149 -35 68 -87 112 -172 146 -55 22 -74 24 -335
27 -268 3 -277 3 -287 -17z m466 -244 c10 -10 17 -32 17 -53 0 -52 -30 -74
-100 -74 l-54 0 0 76 0 76 60 -4 c39 -3 67 -10 77 -21z"/>
<path d="M7030 3471 c-6 -13 -10 -171 -10 -446 0 -275 4 -433 10 -446 10 -17
23 -19 154 -19 107 0 146 3 154 13 7 8 13 72 14 158 l3 144 69 -125 c38 -69
80 -140 93 -158 l24 -32 177 2 c152 3 177 5 180 19 1 8 -54 112 -124 229 -70
118 -129 221 -131 230 -2 9 50 107 116 217 77 127 119 207 115 217 -5 14 -30
16 -180 16 l-174 0 -23 -37 c-13 -21 -50 -86 -83 -146 l-59 -107 -2 122 c-4
186 13 168 -163 168 -137 0 -150 -2 -160 -19z"/>
</g>
</svg>
